<?xml version="1.0" standalone="no"?>
<!DOCTYPE svg PUBLIC "-//W3C//DTD SVG 20010904//EN"
 "http://www.w3.org/TR/2001/REC-SVG-20010904/DTD/svg10.dtd">
<svg version="1.0" xmlns="http://www.w3.org/2000/svg"
 width="1024.000000pt" height="1024.000000pt" viewBox="0 0 1024.000000 1024.000000"
 preserveAspectRatio="xMidYMid meet">

<g transform="translate(0.000000,1024.000000) scale(0.100000,-0.100000)"
fill="#000000" stroke="none">
<path d="M4925 9524 c-275 -19 -396 -30 -475 -44 -36 -6 -85 -13 -110 -16 -25
-3 -54 -9 -65 -14 -19 -8 -42 -13 -140 -26 -22 -4 -44 -10 -50 -15 -5 -5 -21
-9 -36 -9 -15 0 -31 -4 -34 -10 -3 -5 -19 -10 -35 -10 -16 0 -32 -4 -35 -10
-3 -5 -17 -10 -31 -10 -13 0 -32 -4 -42 -9 -9 -5 -37 -14 -62 -21 -25 -7 -53
-16 -62 -21 -10 -5 -27 -9 -37 -9 -11 0 -23 -4 -26 -10 -3 -5 -17 -10 -30 -10
-13 0 -27 -4 -30 -10 -3 -5 -15 -10 -26 -10 -10 0 -19 -4 -19 -8 0 -4 -21 -14
-47 -21 -25 -8 -58 -20 -72 -27 -28 -13 -93 -41 -126 -54 -74 -29 -388 -191
-393 -202 -2 -5 -8 -8 -12 -8 -9 0 -124 -70 -147 -90 -7 -5 -15 -10 -18 -10
-10 0 -160 -103 -163 -112 -2 -4 -9 -8 -16 -8 -7 0 -21 -8 -32 -18 -10 -10
-35 -28 -54 -42 -19 -13 -37 -27 -40 -30 -3 -3 -21 -17 -40 -31 -19 -15 -46
-37 -60 -49 -14 -12 -41 -34 -60 -49 -19 -14 -46 -37 -60 -51 -14 -14 -59 -54
-100 -90 -95 -83 -197 -185 -280 -280 -36 -41 -76 -86 -90 -100 -14 -14 -55
-63 -90 -110 -35 -47 -72 -92 -82 -101 -10 -9 -18 -20 -18 -25 0 -5 -12 -22
-26 -39 -14 -16 -33 -42 -42 -57 -9 -16 -20 -28 -24 -28 -4 0 -8 -5 -8 -10 0
-6 -27 -51 -60 -100 -33 -49 -60 -94 -60 -99 0 -5 -3 -11 -7 -13 -5 -1 -19
-23 -32 -48 -14 -25 -27 -47 -30 -50 -6 -5 -33 -52 -73 -130 -13 -25 -26 -46
-30 -48 -5 -2 -8 -9 -8 -15 0 -7 -20 -52 -44 -102 -46 -95 -78 -166 -107 -242
-5 -13 -13 -33 -18 -45 -14 -38 -33 -82 -42 -100 -5 -10 -9 -27 -9 -37 0 -11
-5 -23 -10 -26 -6 -3 -10 -17 -10 -30 0 -13 -4 -27 -10 -30 -5 -3 -10 -15 -10
-26 0 -10 -4 -27 -9 -37 -5 -9 -14 -37 -21 -62 -7 -25 -16 -55 -21 -68 -5 -13
-9 -34 -9 -47 0 -13 -4 -27 -10 -30 -5 -3 -10 -21 -10 -40 0 -19 -4 -37 -10
-40 -5 -3 -10 -24 -10 -45 0 -21 -4 -42 -10 -45 -5 -3 -10 -26 -10 -50 0 -24
-5 -47 -10 -50 -6 -3 -10 -28 -10 -54 0 -26 -4 -51 -9 -56 -5 -6 -12 -37 -15
-70 -3 -33 -10 -98 -16 -145 -27 -210 -27 -753 0 -1020 6 -58 13 -130 16 -160
3 -30 10 -59 15 -64 5 -6 9 -29 9 -52 0 -24 4 -46 10 -49 5 -3 10 -28 10 -55
0 -27 5 -52 10 -55 6 -3 10 -24 10 -45 0 -21 5 -42 10 -45 6 -3 10 -21 10 -40
0 -19 4 -36 9 -39 5 -3 11 -20 14 -38 9 -53 18 -92 27 -113 4 -11 22 -67 41
-125 18 -58 36 -109 41 -114 4 -6 8 -18 8 -28 0 -10 4 -26 9 -36 5 -9 14 -29
20 -44 6 -16 16 -40 22 -55 7 -16 15 -37 20 -48 32 -82 55 -132 138 -295 51
-102 101 -196 110 -210 9 -14 28 -46 42 -73 13 -26 27 -47 31 -47 5 0 8 -5 8
-10 0 -11 100 -163 158 -240 18 -25 43 -58 55 -74 290 -390 710 -783 1116
-1044 240 -154 459 -272 673 -361 67 -29 132 -56 143 -61 122 -53 463 -157
645 -195 168 -36 269 -52 490 -76 465 -51 878 -32 1345 62 250 50 593 153 753
225 29 13 55 24 59 24 9 0 157 66 263 118 672 328 1293 873 1727 1517 40 60
123 194 123 200 0 2 17 32 39 67 126 208 320 658 389 903 7 22 19 65 28 95 15
52 20 71 44 173 50 210 86 442 100 642 33 469 19 730 -62 1185 -55 310 -177
703 -302 973 -153 331 -258 513 -466 811 -35 50 -170 218 -246 306 -76 88
-360 373 -429 430 -218 181 -478 370 -616 448 -20 11 -47 26 -60 34 -13 7 -26
15 -29 18 -12 12 -320 169 -380 193 -25 10 -65 28 -90 39 -46 21 -80 35 -115
48 -11 4 -33 13 -50 20 -16 7 -41 17 -55 23 -14 5 -33 13 -42 18 -10 5 -29 9
-42 9 -14 0 -28 5 -31 10 -3 6 -15 10 -26 10 -10 0 -27 4 -37 9 -9 5 -37 15
-62 21 -25 7 -54 16 -65 20 -20 9 -58 16 -128 27 -20 3 -40 9 -43 14 -3 5 -18
9 -33 9 -15 0 -31 4 -36 9 -6 5 -30 12 -55 15 -53 8 -139 21 -230 36 -78 13
-189 25 -365 38 -247 19 -301 20 -510 6z m481 -334 c646 -51 1237 -234 1767
-547 1449 -856 2219 -2454 1981 -4113 -150 -1051 -715 -2005 -1573 -2659 -584
-445 -1259 -716 -2011 -807 -179 -22 -674 -25 -850 -6 -1194 130 -2208 720
-2924 1700 -281 384 -517 894 -635 1374 -86 345 -115 600 -115 993 -1 393 28
644 109 967 148 587 402 1101 781 1578 131 165 446 481 609 612 674 541 1432
843 2275 907 156 12 440 12 586 1z"/>
<path d="M4765 9119 c-356 -34 -738 -121 -1062 -244 -82 -31 -242 -103 -358
-160 -738 -366 -1334 -932 -1736 -1650 -222 -398 -388 -879 -454 -1315 -45
-299 -60 -711 -35 -970 99 -1022 535 -1911 1276 -2601 657 -612 1493 -981
2403 -1060 177 -15 656 -6 811 15 881 123 1642 484 2265 1075 623 591 1036
1350 1189 2181 52 287 61 385 61 715 0 191 -5 356 -13 430 -151 1368 -964
2545 -2187 3165 -466 236 -940 372 -1470 420 -129 12 -560 11 -690 -1z m625
-89 c775 -58 1477 -322 2095 -789 489 -369 918 -898 1177 -1450 188 -402 299
-792 354 -1251 24 -202 24 -629 0 -835 -57 -479 -182 -906 -388 -1320 -198
-399 -426 -715 -752 -1040 -659 -658 -1519 -1056 -2451 -1135 -154 -13 -456
-13 -610 0 -843 71 -1625 401 -2265 956 -117 101 -342 330 -437 444 -431 520
-730 1154 -847 1800 -48 265 -60 415 -60 720 0 304 12 450 59 705 124 672 435
1318 886 1839 114 133 358 371 489 477 632 515 1401 822 2195 878 165 12 403
12 555 1z"/>
<path d="M4830 8958 c-1171 -88 -2250 -718 -2905 -1693 -347 -517 -548 -1062
-632 -1710 -25 -195 -25 -650 1 -855 62 -508 176 -887 402 -1330 191 -375 392
-649 708 -966 317 -316 592 -518 966 -708 341 -173 617 -271 974 -346 1167
-242 2383 76 3289 859 129 112 347 335 457 469 416 505 696 1106 814 1752 45
251 60 416 60 695 0 443 -62 824 -200 1226 -191 556 -477 1024 -874 1432 -356
367 -661 587 -1113 807 -598 291 -1277 419 -1947 368z m-2028 -1799 c29 -6 74
-17 101 -26 l47 -15 0 -119 0 -120 -62 3 -63 3 -15 57 c-13 54 -16 58 -50 65
-19 5 -65 8 -101 8 -84 0 -135 -31 -169 -101 -61 -132 -45 -348 33 -433 66
-72 212 -67 345 12 29 17 36 18 43 6 4 -8 20 -33 34 -56 l26 -42 -43 -32 c-93
-68 -186 -99 -292 -99 -161 0 -276 64 -341 189 -57 112 -65 326 -16 459 41
112 144 210 250 238 58 16 203 17 273 3z m913 -10 c164 -50 257 -228 242 -459
-10 -153 -71 -276 -175 -350 -76 -55 -144 -73 -263 -68 -87 3 -103 6 -165 38
-124 64 -182 173 -191 360 -6 124 6 201 46 287 47 100 142 179 245 204 65 15
192 10 261 -12z m988 -4 l67 -17 0 -114 0 -114 -60 0 -59 0 -12 43 c-18 61
-29 69 -106 74 -100 8 -153 -24 -153 -90 0 -35 47 -71 127 -97 122 -40 219
-96 252 -147 95 -143 15 -340 -161 -397 -84 -27 -275 -19 -375 17 l-33 11 0
118 0 118 64 0 63 0 7 -50 c8 -57 18 -66 92 -75 94 -13 184 30 184 86 0 61
-30 85 -160 128 -106 34 -190 89 -224 145 -27 43 -31 58 -31 125 0 62 5 84 25
120 32 56 84 98 152 123 66 23 237 20 341 -7z m2067 -2 c153 -71 233 -241 216
-458 -8 -107 -28 -171 -77 -244 -82 -123 -194 -176 -361 -169 -86 3 -103 7
-164 38 -125 64 -182 172 -191 365 -12 247 75 408 258 475 75 28 251 24 319
-7z m-1365 -190 c49 -111 92 -202 95 -202 3 0 43 83 90 184 47 101 90 190 95
198 8 11 47 16 158 22 l147 7 0 -56 0 -57 -45 -19 -45 -19 0 -294 0 -293 50
-18 50 -18 0 -54 0 -54 -185 0 -186 0 3 57 3 56 43 15 42 14 -1 226 c0 219 -1
226 -17 192 -9 -19 -47 -99 -84 -176 l-67 -142 -66 -7 c-37 -4 -68 -5 -70 -3
-6 6 -126 260 -146 308 l-18 45 -1 -222 0 -221 38 -13 c55 -17 62 -27 62 -80
l0 -49 -180 0 -180 0 0 54 c0 54 0 55 38 66 20 7 40 15 45 19 7 7 14 588 6
594 -2 2 -22 11 -44 19 -39 15 -40 17 -43 66 l-3 51 88 4 c48 2 122 3 163 3
l74 -1 91 -202z m-890 -1543 c43 -11 79 -21 79 -23 1 -1 0 -53 -2 -114 l-4
-113 -57 0 -57 0 -13 50 c-14 56 -28 67 -86 71 -114 8 -168 -18 -168 -79 0
-46 35 -78 112 -103 95 -31 201 -85 238 -121 73 -70 85 -210 27 -304 -33 -54
-103 -107 -167 -126 -62 -19 -247 -14 -332 9 l-70 18 -3 123 -3 122 65 0 65 0
6 -54 c6 -50 10 -56 38 -65 47 -17 147 -13 187 7 45 22 66 63 50 100 -14 35
-43 55 -110 77 -30 10 -92 35 -137 56 -89 42 -133 85 -152 148 -15 52 -14 145
3 185 31 75 112 135 210 156 59 13 189 3 281 -20z m1650 19 c214 -39 333 -246
297 -513 -33 -249 -207 -400 -442 -383 -101 8 -160 30 -220 84 -90 81 -130
192 -130 358 0 159 33 256 116 345 92 98 227 137 379 109z m-665 -139 l0 -131
-57 3 -57 3 -16 55 -16 55 -57 3 -57 3 0 -300 0 -299 50 -12 50 -12 0 -54 0
-54 -201 0 -200 0 3 52 3 52 48 15 47 15 0 298 0 299 -57 -3 -57 -3 -14 -57
-14 -58 -59 0 -59 0 0 130 0 130 360 0 360 0 0 -130z m1744 95 c38 -19 69 -45
90 -73 27 -39 31 -53 35 -124 4 -104 -14 -153 -80 -212 l-50 -45 24 -38 c13
-21 42 -77 64 -124 38 -79 44 -86 82 -99 l41 -13 0 -54 0 -53 -114 0 -113 0
-62 138 c-82 181 -99 202 -157 202 l-44 0 0 -103 0 -103 43 -14 c42 -15 42
-16 45 -67 l3 -53 -190 0 -191 0 0 54 0 53 45 13 45 13 0 297 0 297 -45 17
-45 18 0 54 0 55 258 -3 258 -3 58 -30z m1006 -85 l0 -121 -56 3 -56 3 -17 45
-17 45 -99 0 -100 0 -3 -102 -3 -103 131 0 130 0 0 -70 0 -70 -130 0 -131 0 3
-117 3 -118 110 -3 110 -3 15 53 15 53 55 0 55 0 3 -122 3 -123 -326 0 -325 0
0 54 0 53 45 13 45 13 0 297 0 297 -45 17 -45 18 0 54 0 54 315 0 315 0 0
-120z m-2940 -1380 c17 -12 37 -35 45 -51 l16 -29 332 0 c182 0 377 -3 432 -7
99 -6 100 -6 83 14 -42 47 0 45 50 -3 25 -24 33 -37 24 -41 -7 -3 -26 -16 -41
-29 -16 -13 -34 -24 -40 -24 -17 0 -13 21 5 35 24 17 -152 25 -537 25 l-308 0
-24 -24 c-49 -49 -143 -44 -162 8 -8 23 -6 30 10 42 10 8 27 14 37 14 18 0 52
-28 59 -49 5 -15 36 -4 43 15 9 24 -19 68 -57 88 -49 27 -79 15 -127 -47 -90
-116 -100 -126 -135 -133 -45 -8 -88 10 -123 51 l-27 33 -385 -9 c-212 -5
-405 -12 -428 -15 -41 -5 -43 -7 -28 -23 18 -20 20 -31 6 -31 -16 0 -89 54
-90 66 0 17 78 76 85 63 4 -5 -1 -20 -12 -31 l-18 -21 65 6 c36 4 166 9 290
12 449 11 508 15 513 35 6 25 65 60 99 60 41 0 78 -21 85 -48 6 -27 -16 -52
-47 -52 -18 0 -55 31 -63 52 -7 19 -41 -3 -45 -29 -4 -30 48 -80 92 -88 45 -9
59 2 127 101 27 39 60 76 72 82 31 16 91 8 127 -18z m998 -626 c72 -47 63
-198 -14 -232 -87 -40 -174 18 -174 116 0 115 97 175 188 116z m-4088 1 c0
-12 -9 -13 -44 -9 -37 6 -45 3 -59 -16 -22 -32 -10 -49 55 -79 48 -23 53 -30
56 -61 5 -58 -16 -75 -89 -75 -50 0 -64 3 -67 16 -2 13 7 15 57 11 58 -4 60
-3 66 21 9 34 1 45 -49 66 -47 21 -62 35 -71 71 -10 43 25 70 90 70 42 0 55
-4 55 -15z m260 0 c0 -12 -13 -15 -55 -15 l-55 0 0 -40 0 -40 50 0 c38 0 50
-4 50 -15 0 -11 -12 -15 -50 -15 l-50 0 0 -45 0 -45 55 0 c42 0 55 -3 55 -15
0 -12 -14 -15 -70 -15 l-70 0 0 130 0 130 70 0 c56 0 70 -3 70 -15z m210 -88
l65 -102 3 103 c2 82 6 102 17 102 12 0 15 -22 15 -130 0 -169 -9 -171 -107
-19 l-71 111 1 -107 c2 -79 -1 -109 -10 -112 -10 -4 -13 26 -13 126 0 168 9
171 100 28z m398 84 c3 -10 -4 -12 -35 -7 -51 9 -88 -6 -108 -43 -21 -41 -19
-89 5 -128 18 -31 23 -33 76 -33 40 0 54 -3 51 -12 -2 -9 -24 -13 -60 -13 -49
0 -61 5 -85 28 -24 25 -27 34 -27 98 0 67 2 72 33 100 30 27 39 30 89 27 37
-2 58 -8 61 -17z m242 4 c0 -12 -13 -15 -55 -15 l-55 0 0 -40 0 -40 56 0 c73
0 70 -24 -4 -28 l-52 -3 0 -45 0 -44 55 0 c42 0 55 -3 55 -15 0 -12 -14 -15
-70 -15 l-70 0 0 130 0 130 70 0 c56 0 70 -3 70 -15z m400 0 c38 -20 60 -63
60 -118 0 -79 -60 -127 -160 -127 l-50 0 0 130 0 130 60 0 c35 0 74 -7 90 -15z
m198 -131 c-3 -140 -4 -147 -27 -165 -25 -21 -62 -22 -68 -3 -2 6 9 14 25 17
38 8 42 23 42 175 0 104 2 122 16 122 13 0 15 -18 12 -146z m257 29 c26 -65
49 -124 52 -130 3 -7 -2 -13 -11 -13 -10 0 -23 16 -32 40 -16 40 -17 40 -70
40 -54 0 -54 0 -70 -40 -9 -22 -22 -40 -30 -40 -8 0 -14 2 -14 4 0 3 54 138
97 244 13 32 35 3 78 -105z m232 26 c32 -49 63 -98 70 -107 10 -14 12 3 13 91
0 88 3 107 15 107 13 0 15 -21 15 -130 0 -121 -1 -130 -19 -130 -13 0 -40 32
-88 106 l-68 105 -3 -106 c-2 -78 -6 -105 -15 -102 -8 2 -13 42 -15 130 -2
120 -2 127 17 127 14 0 37 -27 78 -91z m420 74 c3 -8 -14 -11 -55 -10 -46 2
-65 -2 -81 -17 -43 -39 -45 -122 -5 -167 13 -14 31 -19 71 -19 l53 0 0 40 c0
38 -2 40 -30 40 -20 0 -30 5 -30 15 0 11 12 15 45 15 l45 0 0 -64 c0 -58 -2
-64 -22 -70 -46 -12 -111 -6 -143 14 -30 19 -55 70 -55 113 0 34 34 98 59 112
31 18 142 16 148 -2z m314 -14 c16 -17 30 -43 31 -58 8 -117 -31 -171 -123
-171 -33 0 -48 7 -75 34 -31 31 -34 40 -34 91 0 96 33 134 118 135 48 0 57 -4
83 -31z m429 16 c0 -12 -13 -15 -55 -15 l-55 0 0 -40 0 -40 50 0 c38 0 50 -4
50 -15 0 -11 -12 -15 -50 -15 l-50 0 0 -45 0 -45 55 0 c42 0 55 -3 55 -15 0
-12 -14 -15 -70 -15 l-70 0 0 130 0 130 70 0 c56 0 70 -3 70 -15z m448 -4 c3
-10 -4 -12 -35 -7 -56 10 -91 -7 -109 -51 -20 -46 -13 -98 17 -129 18 -19 33
-24 76 -24 51 0 69 -12 37 -24 -9 -3 -35 -6 -60 -6 -65 0 -105 39 -112 108 -5
60 10 104 46 133 20 15 38 19 81 17 35 -2 56 -8 59 -17z m522 -84 c20 -53 39
-99 41 -102 3 -2 22 43 44 101 34 90 42 104 62 104 23 0 23 -1 23 -130 0 -108
-3 -130 -15 -130 -11 0 -15 21 -17 107 l-3 106 -40 -104 c-24 -61 -46 -104
-54 -104 -8 0 -31 45 -57 110 l-43 110 0 -113 c-1 -86 -4 -113 -13 -110 -9 3
-14 41 -16 132 l-3 127 27 -3 c25 -3 31 -13 64 -101z m376 3 c21 -55 41 -100
44 -100 3 0 23 45 44 100 34 87 42 100 62 100 24 0 24 0 24 -130 0 -109 -2
-130 -15 -130 -12 0 -15 19 -16 113 l0 112 -43 -109 c-23 -61 -48 -112 -54
-114 -14 -4 -26 19 -67 131 l-34 92 0 -112 c-1 -94 -4 -113 -16 -113 -13 0
-15 21 -15 130 l0 130 24 0 c22 0 29 -11 62 -100z m434 85 c0 -12 -13 -15 -55
-15 l-55 0 0 -40 0 -40 56 0 c73 0 70 -24 -4 -28 l-52 -3 0 -45 0 -44 55 0
c42 0 55 -3 55 -15 0 -12 -14 -15 -70 -15 l-70 0 0 130 0 130 70 0 c56 0 70
-3 70 -15z m248 -1 c30 -20 30 -79 1 -110 l-21 -23 31 -51 c36 -59 36 -60 14
-60 -11 0 -29 21 -48 55 -25 46 -34 55 -57 55 -27 0 -28 -1 -28 -55 0 -42 -3
-55 -15 -55 -13 0 -15 21 -15 130 l0 130 58 0 c36 0 66 -6 80 -16z m312 1 c0
-12 -8 -14 -38 -9 -79 12 -133 -50 -116 -134 11 -53 37 -72 100 -72 40 0 54
-3 51 -12 -2 -9 -25 -13 -66 -13 -56 0 -66 3 -87 28 -47 55 -43 151 8 199 26
24 38 28 89 28 46 0 59 -3 59 -15z m248 3 c-3 -8 -27 -14 -61 -16 l-57 -3 0
-39 0 -40 55 0 c42 0 55 -3 55 -15 0 -12 -13 -15 -55 -15 l-55 0 0 -45 0 -45
60 0 c47 0 60 -3 60 -15 0 -12 -15 -15 -75 -15 l-75 0 0 130 0 130 76 0 c56 0
75 -3 72 -12z m-2420 -150 c-3 -7 -20 -13 -38 -13 -18 0 -35 6 -37 13 -3 8 8
12 37 12 29 0 40 -4 38 -12z m-1540 -357 c2 -7 -17 -11 -58 -11 l-61 0 3 -42
3 -43 53 -3 c69 -4 67 -22 -3 -22 l-55 0 0 -50 0 -50 60 0 c47 0 60 -3 60 -15
0 -13 -13 -15 -72 -13 l-73 3 -3 119 c-1 66 -1 125 1 130 6 15 140 11 145 -3z
m220 13 c12 -4 22 -12 22 -19 0 -8 -14 -11 -48 -7 -35 3 -51 0 -61 -11 -22
-28 -8 -51 47 -77 29 -14 57 -32 62 -40 16 -25 11 -66 -9 -84 -35 -32 -141
-34 -141 -2 0 9 14 12 53 8 90 -7 106 45 27 86 -63 33 -80 51 -80 83 0 50 61
80 128 63z m300 -11 c2 -9 -10 -13 -42 -13 l-46 0 0 -121 c0 -92 -3 -120 -12
-117 -9 3 -14 39 -16 121 l-3 117 -39 0 c-38 0 -49 8 -33 24 13 13 186 2 191
-11z m241 -11 c80 -59 62 -197 -29 -229 -19 -7 -56 -12 -82 -12 l-48 -1 0 128
c0 71 3 131 6 134 13 14 128 -1 153 -20z m404 17 c30 -16 37 -28 37 -67 0 -27
-11 -45 -55 -91 -30 -32 -55 -61 -55 -64 0 -4 27 -7 60 -7 47 0 60 -3 60 -15
0 -12 -15 -15 -79 -15 -44 0 -83 5 -86 10 -4 6 21 40 54 76 63 67 81 106 64
133 -10 15 -59 21 -92 10 -27 -8 -21 19 6 29 38 14 60 14 86 1z m258 1 c30
-17 49 -64 49 -127 0 -67 -15 -101 -51 -122 -35 -20 -75 -7 -100 32 -16 26
-19 45 -17 106 3 66 6 76 31 97 30 26 57 30 88 14z m266 -5 c26 -18 36 -56 24
-87 -5 -14 -32 -50 -61 -81 l-52 -57 67 0 c49 0 66 -3 63 -12 -3 -9 -32 -14
-86 -16 -103 -4 -106 7 -21 94 55 58 60 67 57 101 -3 35 -6 38 -36 41 -18 2
-40 -2 -48 -9 -11 -9 -18 -9 -26 -1 -7 7 -2 15 18 26 37 19 74 20 101 1z m281
-2 c2 -9 -9 -13 -36 -13 -45 0 -69 -20 -78 -68 l-7 -33 30 18 c86 49 153 -84
71 -141 -34 -24 -66 -19 -99 13 -26 26 -29 36 -29 93 0 98 41 150 114 145 16
-1 31 -8 34 -14z"/>
<path d="M3484 7002 c-83 -39 -114 -116 -114 -282 0 -134 18 -201 69 -251 67
-68 178 -63 244 10 43 48 57 90 64 201 7 104 -11 218 -40 262 -46 68 -147 95
-223 60z"/>
<path d="M6514 7002 c-83 -39 -114 -116 -114 -282 0 -134 18 -201 69 -251 90
-90 254 -41 291 88 32 112 19 321 -23 385 -46 68 -147 95 -223 60z"/>
<path d="M5980 5261 c-81 -43 -117 -174 -99 -357 10 -101 36 -156 89 -192 30
-20 45 -23 100 -20 83 4 119 29 157 106 26 54 28 65 28 187 0 83 -5 144 -13
168 -17 46 -55 93 -93 112 -40 21 -127 19 -169 -4z"/>
<path d="M6960 5151 l0 -131 48 0 c110 0 172 45 172 125 0 91 -38 126 -146
133 l-74 5 0 -132z"/>
<path d="M4970 3881 c0 -15 28 -33 40 -26 8 5 8 11 -1 21 -13 15 -39 19 -39 5z"/>
<path d="M5217 3813 c-9 -9 12 -33 29 -33 17 0 18 12 2 28 -14 14 -22 15 -31
5z"/>
<path d="M6184 3267 c-37 -32 -44 -108 -15 -154 18 -29 26 -33 65 -33 66 0 86
25 86 106 0 56 -3 65 -26 83 -35 27 -76 27 -110 -2z"/>
<path d="M3610 3180 l0 -100 44 0 c33 0 52 6 73 24 25 21 28 31 28 81 0 72
-23 95 -96 95 l-49 0 0 -100z"/>
<path d="M4103 3216 l-21 -56 39 0 c44 0 46 5 20 69 l-17 43 -21 -56z"/>
<path d="M5024 3278 c-47 -22 -60 -124 -23 -172 16 -21 29 -26 64 -26 35 0 48
5 64 26 24 30 28 97 10 137 -19 41 -71 57 -115 35z"/>
<path d="M7504 3281 c-2 -2 -4 -24 -4 -48 l0 -44 41 3 c48 3 65 22 56 60 -6
22 -14 27 -47 30 -23 2 -43 2 -46 -1z"/>
<path d="M4840 2675 l0 -105 35 0 c86 0 134 68 104 147 -17 43 -48 63 -101 63
l-38 0 0 -105z"/>
<path d="M5556 2758 c-19 -27 -21 -122 -3 -158 9 -18 21 -25 42 -25 38 0 55
32 55 105 0 64 -20 100 -55 100 -13 0 -31 -10 -39 -22z"/>
<path d="M6072 2668 c-7 -7 -12 -24 -12 -38 0 -59 84 -83 102 -29 5 16 5 37
-1 52 -9 22 -17 27 -44 27 -18 0 -38 -5 -45 -12z"/>
</g>
</svg>
