<?xml version="1.0" standalone="no"?>
<!DOCTYPE svg PUBLIC "-//W3C//DTD SVG 20010904//EN"
 "http://www.w3.org/TR/2001/REC-SVG-20010904/DTD/svg10.dtd">
<svg version="1.0" xmlns="http://www.w3.org/2000/svg"
 width="259.000000pt" height="257.000000pt" viewBox="0 0 259.000000 257.000000"
 preserveAspectRatio="xMidYMid meet">

<g transform="translate(0.000000,257.000000) scale(0.100000,-0.100000)"
fill="#000000" stroke="none">
<path d="M0 1285 l0 -1285 1295 0 1295 0 0 1285 0 1285 -1295 0 -1295 0 0
-1285z m1483 1190 c317 -41 664 -302 834 -631 148 -284 176 -616 77 -914 -107
-318 -352 -589 -650 -714 -312 -132 -615 -132 -918 -1 -299 130 -570 440 -646
740 -48 187 -73 529 -74 1015 -1 297 1 341 17 386 35 101 84 124 277 134 216
12 954 1 1083 -15z"/>
<path d="M1760 1579 c-74 -33 -112 -81 -76 -95 7 -3 41 6 75 21 133 56 278 25
351 -76 59 -82 64 -189 15 -312 -39 -98 -25 -133 33 -79 41 39 65 123 65 232
0 47 -5 101 -12 121 -18 56 -133 161 -204 187 -77 29 -184 30 -247 1z"/>
<path d="M728 1429 c-51 -26 -98 -108 -98 -168 0 -97 87 -181 188 -181 28 0
53 4 56 9 3 5 -18 23 -48 39 -75 43 -116 95 -116 148 0 44 16 65 62 83 56 21
179 -23 138 -49 -8 -5 -32 -10 -53 -10 -69 0 -107 -42 -52 -56 44 -11 165 0
175 16 32 50 -9 131 -84 166 -62 29 -118 30 -168 3z"/>
<path d="M455 1426 c-72 -31 -70 -72 11 -178 68 -89 67 -104 -4 -100 -42 3
-53 0 -59 -14 -9 -24 31 -54 74 -54 52 0 113 63 113 116 0 33 -7 45 -65 100
-73 70 -83 97 -34 92 38 -4 65 26 39 42 -20 13 -39 12 -75 -4z"/>
<path d="M1123 1427 c-18 -7 -42 -21 -53 -32 -24 -25 -40 -105 -39 -199 1 -80
9 -118 26 -123 17 -6 31 51 38 156 9 133 37 176 97 147 37 -18 59 -76 69 -183
10 -109 30 -149 49 -99 18 48 12 225 -9 272 -28 62 -103 88 -178 61z"/>
<path d="M1467 1428 c-58 -13 -93 -51 -102 -111 -8 -49 7 -117 36 -164 54 -88
230 -98 252 -14 4 17 -2 19 -85 17 -86 -1 -90 0 -114 27 -45 53 -24 161 37
193 25 13 48 15 96 11 67 -7 79 2 40 28 -31 20 -101 26 -160 13z"/>
<path d="M1830 1425 c-73 -23 -94 -53 -98 -138 -4 -91 22 -151 83 -184 68 -38
175 -43 175 -8 0 20 -35 40 -95 54 -67 16 -91 34 -99 72 -11 54 10 106 56 139
46 34 66 37 108 15 43 -22 40 -51 -7 -64 -21 -6 -45 -11 -54 -11 -9 0 -22 -7
-30 -16 -10 -13 -10 -17 2 -25 23 -15 70 -20 144 -17 70 3 70 3 68 31 -1 15
-13 52 -27 83 -20 42 -33 58 -60 69 -43 18 -106 18 -166 0z"/>
</g>
</svg>
