<?xml version="1.0" standalone="no"?>
<!DOCTYPE svg PUBLIC "-//W3C//DTD SVG 20010904//EN"
 "http://www.w3.org/TR/2001/REC-SVG-20010904/DTD/svg10.dtd">
<svg version="1.0" xmlns="http://www.w3.org/2000/svg"
 width="1832.000000pt" height="689.000000pt" viewBox="0 0 1832.000000 689.000000"
 preserveAspectRatio="xMidYMid meet">

<g transform="translate(0.000000,689.000000) scale(0.100000,-0.100000)"
fill="#000000" stroke="none">
<path d="M0 3445 l0 -3445 9160 0 9160 0 0 3445 0 3445 -9160 0 -9160 0 0
-3445z m4620 2765 c0 -5 -4 -10 -9 -10 -6 0 -13 5 -16 10 -3 6 1 10 9 10 9 0
16 -4 16 -10z m64 -46 c10 -25 1 -27 -19 -4 -15 17 -16 20 -3 20 9 0 19 -7 22
-16z m96 -54 c0 -5 -2 -10 -4 -10 -3 0 -8 5 -11 10 -3 6 -1 10 4 10 6 0 11 -4
11 -10z m110 -102 c0 -7 14 -22 30 -33 34 -23 38 -35 13 -35 -10 0 -30 16 -45
34 -32 40 -34 46 -13 46 8 0 15 -6 15 -12z m-173 -80 c-3 -8 -6 -5 -6 6 -1 11
2 17 5 13 3 -3 4 -12 1 -19z m113 2 c25 -25 25 -30 0 -30 -16 0 -40 26 -40 44
0 13 21 5 40 -14z m190 -50 c0 -5 -4 -10 -10 -10 -5 0 -10 5 -10 10 0 6 5 10
10 10 6 0 10 -4 10 -10z m-241 -49 l24 -18 -27 -7 c-34 -8 -46 -1 -39 24 6 24
11 25 42 1z m338 -47 c2 -6 -10 -17 -26 -23 -18 -8 -32 -23 -37 -39 l-7 -27
-7 25 c-5 16 -2 29 6 36 8 6 14 16 14 22 0 21 50 27 57 6z m30 -56 c-3 -8 -6
-5 -6 6 -1 11 2 17 5 13 3 -3 4 -12 1 -19z m-150 -72 c-4 -9 -11 -16 -17 -16
-11 0 -14 33 -3 43 11 11 26 -10 20 -27z m223 14 c0 -5 -2 -10 -4 -10 -3 0 -8
5 -11 10 -3 6 -1 10 4 10 6 0 11 -4 11 -10z m-59 -71 c8 -16 8 -24 -1 -33 -14
-14 -50 26 -50 55 0 17 3 18 20 9 11 -6 25 -20 31 -31z m-129 -60 c-9 -3 -24
-4 -34 -1 -16 4 -16 6 -1 29 l17 25 17 -24 c17 -21 17 -23 1 -29z m188 31 c0
-11 -4 -20 -10 -20 -5 0 -10 2 -10 4 0 2 -3 11 -6 20 -4 11 -1 16 10 16 9 0
16 -8 16 -20z m57 -2 c-3 -8 -6 -5 -6 6 -1 11 2 17 5 13 3 -3 4 -12 1 -19z
m-460 -20 c-3 -7 -5 -2 -5 12 0 14 2 19 5 13 2 -7 2 -19 0 -25z m503 -13 c0
-8 7 -15 15 -15 11 0 15 -11 14 -42 -1 -24 -3 -34 -6 -23 -3 11 -11 25 -18 31
-8 6 -19 23 -24 37 -9 22 -8 27 4 27 8 0 15 -7 15 -15z m-73 -37 c-3 -7 -5 -2
-5 12 0 14 2 19 5 13 2 -7 2 -19 0 -25z m-387 -44 c0 -13 -4 -24 -10 -24 -5 0
-10 14 -10 31 0 17 4 28 10 24 6 -3 10 -17 10 -31z m430 -30 c0 -14 -4 -22
-10 -19 -5 3 -10 17 -10 31 0 14 4 22 10 19 6 -3 10 -17 10 -31z m135 -44 c4
-16 12 -30 18 -30 7 0 5 -4 -3 -9 -8 -5 -27 -7 -42 -4 -30 6 -39 38 -16 61 20
20 36 13 43 -18z m-105 -5 c0 -8 9 -23 21 -34 22 -20 23 -51 2 -59 -8 -2 -13
6 -13 21 0 14 -7 27 -15 31 -17 6 -21 56 -5 56 6 0 10 -7 10 -15z m130 -127
c0 -4 -4 -8 -9 -8 -6 0 -12 4 -15 8 -3 5 1 9 9 9 8 0 15 -4 15 -9z m70 -8 c0
-5 -4 -10 -10 -10 -5 0 -10 5 -10 10 0 6 5 10 10 10 6 0 10 -4 10 -10z m30
-36 c0 -8 -4 -12 -10 -9 -5 3 -10 10 -10 16 0 5 5 9 10 9 6 0 10 -7 10 -16z
m2810 -73 c148 -46 280 -159 343 -293 46 -98 58 -154 58 -268 0 -178 -49 -300
-170 -421 -116 -116 -246 -169 -416 -169 -169 0 -299 53 -416 170 -153 151
-208 351 -157 570 47 205 227 376 443 424 89 20 227 14 315 -13z m1050 20
c180 -30 310 -145 327 -292 l6 -49 -151 0 -150 0 -7 29 c-3 15 -20 41 -36 57
-27 26 -37 29 -94 29 -48 0 -68 -5 -84 -19 -29 -26 -37 -81 -18 -121 18 -38
63 -62 227 -120 142 -51 194 -78 247 -131 52 -53 71 -93 79 -172 11 -101 -33
-212 -110 -280 -77 -67 -183 -102 -311 -102 -243 1 -420 125 -442 309 l-6 52
149 -3 148 -3 10 -33 c20 -72 95 -111 178 -93 111 25 120 153 15 207 -17 9
-85 34 -151 56 -196 65 -259 105 -309 197 -54 98 -44 239 23 336 79 115 273
177 460 146z m2740 -17 c98 -29 172 -74 246 -148 120 -120 169 -242 168 -421
-1 -93 -5 -122 -28 -190 -61 -179 -185 -303 -362 -366 -83 -29 -246 -37 -338
-15 -207 49 -379 217 -431 421 -19 76 -19 234 0 309 20 75 74 178 125 238 75
87 218 165 345 188 68 12 208 4 275 -16z m1070 15 c176 -28 306 -149 322 -299
l3 -35 -152 -3 c-134 -2 -153 -1 -153 13 0 54 -65 105 -135 105 -93 0 -147
-87 -94 -154 26 -34 71 -56 206 -105 189 -67 259 -112 311 -200 24 -41 27 -56
27 -136 0 -107 -19 -157 -86 -230 -100 -109 -294 -153 -478 -110 -162 39 -284
161 -293 295 l-3 45 146 3 146 3 11 -39 c22 -73 94 -111 176 -92 114 25 121
150 13 207 -16 8 -87 35 -159 59 -71 24 -147 53 -167 63 -44 23 -116 93 -137
134 -25 48 -35 135 -23 201 14 79 38 123 94 175 99 92 253 128 425 100z m2210
-18 c148 -46 280 -159 343 -293 46 -98 58 -154 58 -268 0 -178 -49 -300 -170
-421 -116 -116 -246 -169 -416 -169 -169 0 -299 53 -416 170 -153 151 -208
351 -157 570 47 205 227 376 443 424 89 20 227 14 315 -13z m-8305 -10 c75
-27 153 -78 211 -139 41 -42 103 -151 119 -209 l6 -23 -154 0 -155 0 -20 34
c-59 100 -216 142 -338 91 -54 -22 -110 -81 -140 -147 -25 -56 -28 -74 -28
-158 1 -120 26 -190 89 -254 52 -52 115 -76 196 -76 96 0 167 34 218 106 l24
34 154 0 154 0 -6 -22 c-21 -73 -73 -158 -134 -218 -78 -76 -163 -121 -274
-144 -320 -66 -615 108 -692 409 -19 76 -19 241 0 323 47 198 195 351 396 407
82 23 295 15 374 -14z m3296 -375 c87 -213 160 -390 162 -392 2 -2 74 174 161
391 l158 395 164 0 164 0 0 -575 0 -575 -140 0 -140 0 -2 334 -3 335 -125
-335 -125 -335 -115 3 -115 3 -127 340 -127 340 0 -342 -1 -343 -140 0 -140 0
0 575 0 575 167 -2 166 -3 158 -389z m4139 284 l0 -110 -150 0 -150 0 0 -465
0 -465 -145 0 -145 0 0 465 0 465 -150 0 -150 0 0 110 0 110 445 0 445 0 0
-110z m2043 95 c116 -30 200 -95 247 -190 22 -44 25 -64 25 -155 0 -94 -3
-110 -26 -155 -36 -66 -98 -127 -162 -156 -29 -13 -53 -24 -55 -25 -2 -1 51
-93 116 -205 65 -112 124 -214 131 -226 l12 -23 -158 0 -158 0 -118 215 -119
215 -34 0 -34 0 0 -215 0 -215 -140 0 -140 0 0 575 0 575 278 0 c214 0 291 -3
335 -15z m1157 -95 l0 -110 -210 0 -210 0 0 -120 0 -120 190 0 190 0 0 -105 0
-105 -190 0 -190 0 0 -125 0 -125 210 0 210 0 0 -115 0 -115 -350 0 -350 0 0
575 0 575 350 0 350 0 0 -110z m-12244 -57 c-11 -11 -19 6 -11 24 8 17 8 17
12 0 3 -10 2 -21 -1 -24z m170 -140 c-13 -13 -28 15 -20 38 l7 24 10 -28 c5
-16 6 -31 3 -34z m-561 18 c3 -5 1 -12 -5 -16 -5 -3 -10 1 -10 9 0 18 6 21 15
7z m394 -33 c-1 -41 -1 -42 -11 -15 -5 15 -7 34 -4 42 10 27 16 16 15 -27z
m104 -20 c6 -21 -14 -34 -38 -24 -15 5 -21 37 -9 48 11 11 42 -4 47 -24z m96
-25 c1 -7 -3 -13 -9 -13 -5 0 -10 15 -9 33 0 27 2 29 9 12 5 -11 9 -26 9 -32z
m-29 -63 c0 -5 -2 -10 -4 -10 -3 0 -8 5 -11 10 -3 6 -1 10 4 10 6 0 11 -4 11
-10z m-532 -82 c7 -7 12 -22 12 -35 0 -12 9 -27 20 -33 14 -8 20 -21 20 -46 0
-20 7 -42 15 -50 8 -9 15 -26 15 -39 0 -12 7 -25 15 -29 8 -3 15 -16 15 -28 0
-13 6 -32 14 -43 7 -11 16 -33 20 -49 4 -15 14 -35 21 -43 8 -8 15 -24 15 -36
0 -12 7 -31 15 -41 8 -11 15 -28 15 -39 0 -10 6 -31 14 -45 37 -69 56 -114 56
-131 0 -10 7 -24 15 -31 8 -7 15 -22 15 -35 0 -12 9 -30 20 -40 16 -14 20 -29
18 -59 l-3 -41 -103 -3 -103 -3 -25 58 c-14 32 -29 66 -35 75 -5 10 -9 23 -9
31 0 7 -9 29 -20 50 -11 20 -20 41 -20 47 0 5 -13 38 -29 72 -16 35 -33 77
-37 93 -4 17 -10 32 -13 35 -5 4 -22 46 -60 143 -5 15 -11 8 -30 -35 -13 -29
-29 -66 -37 -83 -7 -16 -16 -42 -20 -57 -3 -16 -10 -28 -15 -28 -5 0 -9 -7 -9
-16 0 -15 -21 -67 -56 -137 -8 -16 -14 -34 -14 -40 -1 -7 -9 -30 -20 -52 -11
-22 -19 -47 -20 -56 0 -9 -7 -22 -15 -29 -8 -7 -15 -20 -15 -29 0 -33 -22 -41
-117 -41 l-93 0 0 29 c0 25 10 54 50 146 5 11 16 38 26 60 9 22 25 58 34 80
10 22 28 61 39 87 12 26 21 52 21 58 0 7 6 24 13 38 8 15 21 43 29 62 8 19 25
56 37 81 11 25 21 52 21 59 0 6 6 24 14 38 28 55 56 120 56 130 0 6 10 18 22
26 28 20 187 23 206 4z m-3765 -93 c22 -49 45 -103 52 -120 30 -68 45 -103 70
-165 29 -74 31 -76 79 -183 20 -44 36 -83 36 -88 0 -7 23 -57 50 -109 4 -9 11
-30 14 -48 4 -17 12 -34 17 -37 5 -4 9 -17 9 -31 0 -24 -1 -24 -89 -24 -106 0
-117 7 -150 95 -12 33 -28 74 -35 90 -7 17 -23 55 -36 85 -37 89 -52 123 -66
153 -8 16 -14 35 -14 43 0 8 -9 31 -20 51 -11 21 -20 45 -20 55 0 24 -40 45
-51 27 -5 -8 -9 -19 -9 -25 0 -10 -18 -57 -50 -129 -5 -11 -19 -45 -30 -75
-26 -66 -40 -100 -69 -161 -11 -25 -21 -53 -21 -60 0 -8 -6 -23 -14 -34 -7
-11 -16 -31 -19 -45 -3 -14 -16 -35 -27 -48 -18 -19 -31 -22 -95 -22 -111 0
-120 8 -88 72 29 59 33 68 55 126 26 73 55 140 73 174 8 14 15 33 15 41 0 8 7
20 15 27 8 7 15 19 15 28 0 8 10 36 21 61 24 50 26 56 64 151 29 73 48 115 79
178 l21 43 90 -3 89 -3 39 -90z m981 79 c14 -13 16 -54 16 -292 0 -260 1 -278
21 -319 25 -51 46 -67 111 -84 41 -11 54 -10 102 6 109 37 128 108 125 463 -1
155 2 216 11 227 16 19 158 21 183 2 16 -11 17 -37 14 -297 -3 -341 -10 -378
-91 -484 -17 -21 -39 -42 -50 -47 -12 -5 -41 -21 -66 -36 -43 -25 -52 -26
-180 -27 l-135 0 -74 39 c-40 22 -80 51 -89 65 -9 14 -20 30 -26 35 -53 49
-67 150 -68 479 -1 303 -8 286 108 286 53 0 77 -4 88 -16z m1327 -1 c11 -13
13 -77 11 -344 l-3 -328 23 -6 c13 -2 109 -6 215 -7 105 -2 195 -7 200 -11 4
-5 8 -45 8 -89 -1 -58 -5 -82 -15 -89 -23 -14 -613 -12 -628 3 -9 9 -12 119
-12 434 0 371 2 424 16 438 23 23 166 23 185 -1z m2079 -33 c0 -16 -4 -30 -10
-30 -11 0 -14 43 -3 53 11 12 13 8 13 -23z m-322 -259 c3 -24 0 -32 -10 -29
-7 3 -14 19 -16 37 -3 24 0 32 10 29 7 -3 14 -19 16 -37z m389 -68 c-3 -10 -5
-4 -5 12 0 17 2 24 5 18 2 -7 2 -21 0 -30z m-4155 -874 c188 -66 210 -307 35
-400 -36 -19 -58 -22 -162 -23 l-120 -1 -8 75 c-4 41 -6 135 -5 208 3 119 5
135 22 148 31 22 163 18 238 -7z m527 6 c12 -13 13 -406 0 -421 -14 -17 -85
-19 -95 -3 -12 21 -4 423 9 432 13 8 75 2 86 -8z m610 -5 c52 -28 59 -61 19
-95 -34 -29 -44 -31 -55 -11 -4 8 -33 17 -64 21 -53 7 -58 5 -92 -25 -108 -95
-2 -277 128 -218 18 8 25 19 25 39 0 26 -3 28 -42 31 -43 3 -43 3 -43 43 l0
40 95 0 95 0 3 -85 c4 -111 0 -123 -45 -142 -102 -43 -150 -48 -221 -23 -60
21 -86 40 -115 83 -39 58 -52 130 -33 186 27 80 61 123 123 156 53 28 167 28
222 0z m442 10 c18 -10 19 -23 19 -213 0 -145 -3 -206 -12 -215 -15 -15 -90
-16 -104 -2 -7 7 -9 83 -6 213 3 171 6 204 20 215 19 15 56 16 83 2z m619 -6
c10 -11 11 -25 4 -52 -9 -37 -9 -37 -69 -42 l-60 -5 -1 -157 c-1 -86 -5 -161
-8 -167 -11 -18 -93 -14 -100 5 -3 9 -6 85 -6 170 l0 154 -53 0 c-29 0 -58 5
-65 12 -16 16 -15 85 1 91 6 3 87 6 178 6 139 1 169 -2 179 -15z m456 -41 c39
-89 56 -126 71 -155 7 -14 13 -31 13 -38 0 -6 13 -40 29 -73 40 -87 43 -101
28 -121 -21 -28 -81 -14 -96 22 -26 61 -43 71 -118 71 -76 0 -93 -9 -108 -59
-10 -32 -22 -40 -66 -40 -63 0 -60 12 48 260 36 82 42 96 48 120 12 44 45 70
87 70 37 0 39 -2 64 -57z m502 45 c8 -8 12 -59 12 -164 0 -109 4 -154 13 -162
6 -6 50 -11 96 -11 56 -1 87 -5 93 -13 12 -20 9 -62 -5 -82 -12 -17 -25 -17
-155 -11 -98 5 -145 12 -153 21 -16 19 -12 416 4 426 19 12 82 9 95 -4z m1778
-31 c34 -18 60 -51 70 -91 6 -25 4 -26 -32 -26 -33 0 -42 5 -56 30 -21 38 -60
53 -118 47 -53 -6 -80 -34 -80 -84 0 -49 34 -76 132 -104 92 -26 140 -61 158
-114 48 -145 -142 -256 -293 -172 -41 23 -77 72 -77 106 0 18 6 21 40 21 30 0
40 -4 40 -16 0 -8 13 -29 29 -45 24 -24 38 -29 76 -29 75 0 114 30 115 88 0
49 -34 76 -134 106 -112 35 -156 71 -163 137 -7 60 17 111 65 141 62 38 161
41 228 5z m1544 -5 c49 -25 120 -97 120 -123 0 -5 -18 -9 -40 -9 -34 0 -45 6
-76 40 -101 111 -287 62 -330 -88 -44 -152 47 -292 189 -292 62 0 105 19 144
64 27 30 39 36 73 36 22 0 40 -4 40 -9 0 -26 -71 -98 -122 -124 -146 -75 -335
-5 -393 146 -22 58 -17 185 8 234 75 144 240 197 387 125z m5860 0 c50 -25
120 -96 120 -123 0 -5 -19 -9 -43 -9 -36 0 -46 4 -57 25 -31 57 -139 90 -214
65 -88 -29 -138 -104 -138 -210 0 -102 42 -170 124 -205 78 -32 192 -4 227 56
14 25 22 29 59 29 47 0 47 0 28 -38 -59 -112 -234 -160 -361 -97 -106 51 -163
155 -153 279 17 207 219 319 408 228z m3520 0 c50 -25 120 -96 120 -123 0 -5
-19 -9 -43 -9 -36 0 -46 4 -57 25 -31 57 -139 90 -214 65 -88 -29 -138 -104
-138 -210 0 -102 42 -170 124 -205 78 -32 192 -4 227 56 14 25 22 29 59 29 47
0 47 0 28 -38 -59 -112 -234 -160 -361 -97 -106 51 -163 155 -153 279 17 207
219 319 408 228z m-10440 -2 l0 -30 -110 0 -110 0 0 -95 0 -95 100 0 100 0 0
-30 0 -30 -100 0 -100 0 0 -95 0 -95 110 0 110 0 0 -30 0 -30 -150 0 -150 0 0
280 0 280 150 0 150 0 0 -30z m334 -192 l146 -223 0 223 0 222 35 0 35 0 0
-280 0 -280 -35 0 c-35 0 -37 2 -178 215 l-142 215 -3 -215 -2 -215 -40 0 -40
0 0 280 0 280 39 0 39 0 146 -222z m1256 192 l0 -30 -110 0 -110 0 0 -95 0
-95 100 0 100 0 0 -30 0 -30 -100 0 -100 0 0 -95 0 -95 110 0 110 0 0 -30 0
-30 -150 0 -150 0 0 280 0 280 150 0 150 0 0 -30z m1303 -3 c105 -52 153 -142
145 -271 -6 -84 -30 -138 -84 -186 -62 -54 -95 -63 -246 -68 l-138 -4 0 282 0
282 133 -4 c120 -3 138 -6 190 -31z m525 -201 c-3 -258 -4 -260 -71 -310 -35
-26 -118 -27 -165 -2 -39 20 -72 70 -72 109 0 24 4 27 34 27 28 0 35 -4 40
-25 16 -62 80 -84 130 -44 l26 20 0 230 0 229 41 0 40 0 -3 -234z m897 17
l145 -218 0 218 0 217 40 0 40 0 0 -280 0 -280 -38 0 -39 0 -146 223 -146 222
-1 -222 0 -223 -35 0 -35 0 0 280 0 280 35 0 c34 0 37 -3 180 -217z m697 205
c45 -13 122 -77 144 -119 l15 -29 -41 0 c-33 0 -47 7 -79 39 -67 67 -160 77
-246 26 -55 -32 -87 -91 -92 -174 -4 -58 -2 -72 24 -121 77 -146 287 -144 354
5 30 66 31 65 -91 65 l-110 0 0 30 0 30 151 0 152 0 -6 -54 c-6 -62 -43 -139
-84 -178 -66 -63 -183 -86 -284 -57 -64 19 -151 108 -169 174 -55 196 68 375
259 375 35 0 81 -5 103 -12z m643 -12 c105 -49 160 -137 159 -256 -1 -121 -52
-208 -150 -256 -147 -72 -331 -1 -389 149 -26 69 -18 189 18 250 54 91 134
136 242 137 53 0 82 -6 120 -24z m775 -6 l0 -30 -115 0 -115 0 0 -95 0 -95
100 0 100 0 0 -30 0 -30 -100 0 -100 0 0 -95 0 -95 115 0 115 0 0 -30 0 -30
-150 0 -150 0 0 280 0 280 150 0 150 0 0 -30z m1095 6 c105 -49 160 -137 159
-256 -1 -121 -52 -208 -150 -256 -147 -72 -331 -1 -389 149 -26 69 -18 189 18
250 54 91 134 136 242 137 53 0 82 -6 120 -24z m1935 -6 l0 -30 -115 0 -115 0
0 -95 0 -95 106 0 105 0 -3 -27 -3 -28 -102 -3 -103 -3 0 -94 0 -95 115 0 115
0 0 -30 0 -30 -150 0 -150 0 0 280 0 280 150 0 150 0 0 -30z m395 8 c44 -24
72 -58 84 -103 20 -76 -14 -152 -80 -182 -21 -10 -39 -21 -39 -25 0 -4 24 -47
54 -96 87 -143 84 -132 33 -132 l-43 0 -65 113 -65 112 -42 3 -42 3 0 -115 0
-116 -40 0 -40 0 0 281 0 281 128 -4 c90 -3 136 -9 157 -20z m1115 -8 l0 -30
-110 0 -110 0 0 -95 0 -95 100 0 100 0 0 -30 0 -30 -100 0 -100 0 0 -95 0 -95
110 0 110 0 0 -30 0 -30 -150 0 -150 0 0 280 0 280 150 0 150 0 0 -30z m-7061
-243 c52 -144 96 -268 99 -274 3 -9 -8 -13 -34 -13 -38 0 -39 1 -60 58 l-20
57 -125 0 -124 0 -20 -57 c-19 -57 -20 -58 -58 -58 -27 0 -38 4 -35 13 2 8 46
132 98 275 l95 262 45 0 45 0 94 -263z m4055 35 c77 -172 102 -220 109 -205 4
10 49 110 100 223 l92 205 43 3 42 3 0 -275 0 -276 -40 0 -40 0 -2 196 -3 196
-86 -193 c-83 -188 -86 -194 -114 -194 -28 0 -32 6 -115 192 l-85 193 -3 -195
-2 -195 -40 0 -40 0 0 276 0 275 42 -3 42 -3 100 -223z m690 0 c77 -172 102
-220 109 -205 4 10 49 110 100 223 l92 205 43 3 42 3 0 -275 0 -276 -40 0 -40
0 -2 196 -3 196 -86 -193 c-83 -188 -86 -194 -114 -194 -28 0 -32 6 -115 192
l-85 193 -3 -195 -2 -195 -40 0 -40 0 0 276 0 275 42 -3 42 -3 100 -223z
m-6434 -32 l0 -30 -160 0 -160 0 0 30 0 30 160 0 160 0 0 -30z m-3565 -572
c80 -13 116 -24 190 -58 11 -5 45 -19 75 -31 30 -12 62 -27 70 -33 8 -6 31
-19 50 -29 143 -72 349 -284 428 -442 111 -220 133 -306 139 -560 4 -146 1
-194 -12 -255 -46 -201 -109 -340 -226 -496 -89 -118 -235 -250 -334 -300 -16
-8 -43 -23 -60 -34 -16 -11 -34 -21 -40 -23 -174 -63 -214 -74 -315 -90 -58
-10 -140 -17 -183 -17 -78 0 -276 32 -309 51 -10 5 -24 9 -32 9 -35 0 -223 93
-316 158 -76 52 -199 170 -237 227 -15 22 -39 56 -54 75 -61 81 -145 264 -181
400 -23 82 -31 259 -44 935 -6 328 -6 343 13 387 27 59 80 108 140 129 43 15
106 17 598 14 435 -2 569 -5 640 -17z m6344 -315 c41 -31 63 -81 57 -132 -8
-63 -45 -119 -127 -195 l-71 -66 106 0 106 0 0 -30 0 -30 -155 0 -155 0 0 24
c0 18 21 41 78 90 42 36 90 81 105 101 84 107 66 211 -36 209 -31 -1 -46 -8
-64 -28 -13 -15 -23 -36 -23 -47 0 -14 -7 -19 -30 -19 -34 0 -37 13 -16 64 14
34 55 69 91 79 36 10 107 0 134 -20z m552 0 c59 -35 91 -165 70 -289 -15 -87
-40 -131 -88 -151 -47 -19 -125 -13 -161 14 -51 37 -66 86 -67 208 0 141 21
195 87 226 50 23 112 20 159 -8z m535 7 c71 -35 93 -113 55 -195 -24 -52 -63
-100 -129 -158 l-53 -47 106 0 105 0 0 -30 0 -30 -155 0 -155 0 0 23 c0 17 23
43 84 94 130 111 175 192 146 262 -28 68 -135 59 -161 -13 -11 -30 -18 -36
-41 -36 -34 0 -35 10 -7 68 37 75 123 101 205 62z m547 6 c38 -16 62 -40 76
-79 10 -25 9 -27 -17 -27 -19 0 -32 8 -44 29 -32 57 -132 50 -164 -11 -8 -16
-18 -52 -21 -80 l-6 -51 22 22 c66 66 191 50 233 -29 22 -43 24 -121 3 -163
-24 -49 -61 -71 -130 -75 -50 -3 -66 0 -94 20 -57 38 -75 79 -79 185 -5 103 8
171 40 216 37 52 115 71 181 43z m-3646 -25 c38 -18 73 -61 73 -91 0 -5 -16
-10 -35 -10 -23 0 -35 5 -35 13 0 51 -115 72 -151 28 -24 -30 -24 -65 1 -89
10 -10 52 -28 92 -41 92 -30 128 -64 128 -120 0 -85 -51 -132 -142 -132 -68 0
-98 12 -131 51 -37 44 -36 70 3 70 17 0 30 -5 30 -10 0 -6 11 -22 25 -35 51
-51 155 -24 155 41 0 48 -17 62 -105 89 -63 20 -90 33 -109 56 -50 59 -26 146
47 180 53 24 101 24 154 0z m-467 -16 c0 -25 -1 -25 -90 -25 l-90 0 0 -75 0
-75 80 0 c79 0 80 0 80 -25 0 -25 -1 -25 -80 -25 l-80 0 0 -75 0 -75 90 0 c89
0 90 0 90 -25 l0 -25 -120 0 -120 0 0 225 0 225 120 0 120 0 0 -25z m1070 0
c0 -24 -3 -25 -60 -25 l-60 0 0 -200 0 -200 -30 0 -30 0 0 200 0 199 -62 3
c-57 3 -63 5 -66 26 l-3 22 155 0 156 0 0 -25z m497 0 c74 -37 106 -89 111
-177 5 -88 -10 -136 -57 -182 -51 -50 -105 -66 -222 -66 l-99 0 0 225 0 225
108 0 c96 0 114 -3 159 -25z"/>
<path d="M8053 4880 c-66 -27 -135 -101 -159 -173 -25 -72 -25 -205 0 -276 24
-68 85 -137 151 -167 39 -19 67 -24 130 -24 99 0 161 26 221 92 56 60 79 130
79 238 0 106 -22 172 -77 235 -59 67 -106 88 -208 92 -68 2 -96 -1 -137 -17z"/>
<path d="M11864 4884 c-133 -49 -208 -204 -183 -379 24 -168 129 -264 290
-265 137 0 216 46 271 158 31 62 33 73 33 172 0 92 -3 112 -26 160 -30 64 -75
112 -133 142 -54 28 -191 35 -252 12z"/>
<path d="M15123 4880 c-66 -27 -135 -101 -159 -173 -25 -72 -25 -205 0 -276
24 -68 85 -137 151 -167 39 -19 67 -24 130 -24 99 0 161 26 221 92 56 60 79
130 79 238 0 106 -22 172 -77 235 -59 67 -106 88 -208 92 -68 2 -96 -1 -137
-17z"/>
<path d="M16270 4765 l0 -148 120 5 c128 5 154 14 187 65 11 16 17 46 17 78 0
58 -18 94 -61 122 -21 14 -54 19 -145 22 l-118 3 0 -147z"/>
<path d="M1560 3294 c-12 -4 -15 -19 -14 -72 1 -37 2 -86 3 -109 2 -63 18 -74
88 -58 75 18 93 40 93 115 0 51 -4 63 -29 91 -24 26 -38 32 -78 35 -26 1 -55
1 -63 -2z"/>
<path d="M4255 3210 c-20 -39 -20 -74 1 -66 9 3 22 6 30 6 15 0 19 44 8 74 -9
24 -22 19 -39 -14z"/>
<path d="M9760 3099 l0 -221 88 4 c113 5 165 31 200 100 44 86 33 205 -25 269
-42 47 -107 69 -200 69 l-63 0 0 -221z"/>
<path d="M12565 3302 c-122 -57 -161 -225 -80 -344 68 -100 245 -103 317 -7
53 71 63 185 22 265 -46 87 -169 128 -259 86z"/>
<path d="M14435 3302 c-122 -57 -161 -225 -80 -344 68 -100 245 -103 317 -7
53 71 63 185 22 265 -46 87 -169 128 -259 86z"/>
<path d="M16760 3216 l0 -106 69 0 c86 0 116 11 136 49 23 46 19 86 -13 122
-27 30 -34 32 -110 37 l-82 5 0 -107z"/>
<path d="M10832 3149 c-24 -67 -46 -128 -49 -135 -4 -11 14 -14 97 -14 56 0
100 4 98 8 -1 5 -23 65 -48 135 -25 70 -47 127 -50 127 -3 0 -25 -55 -48 -121z"/>
<path d="M6044 1642 c-89 -37 -140 -103 -86 -110 13 -2 31 3 40 11 26 23 131
57 177 57 81 0 197 -75 237 -154 16 -31 21 -61 22 -126 1 -81 -1 -88 -37 -147
-31 -51 -36 -65 -28 -86 14 -35 42 -26 72 24 13 22 29 46 35 52 6 7 16 41 23
76 10 50 10 78 0 134 -20 124 -73 195 -186 253 -60 31 -75 34 -148 33 -51 0
-95 -6 -121 -17z"/>
<path d="M5030 1498 c-19 -5 -42 -16 -51 -24 -8 -8 -21 -14 -27 -14 -6 0 -14
-10 -18 -22 -3 -12 -13 -28 -20 -36 -21 -20 -18 -126 3 -165 28 -51 45 -67 90
-88 42 -19 89 -24 130 -13 22 6 22 7 5 30 -13 17 -27 23 -55 24 -32 0 -45 7
-83 46 -38 40 -44 53 -44 88 0 33 7 48 36 79 33 34 39 37 93 37 51 0 60 -3 87
-31 28 -30 28 -31 10 -45 -11 -8 -39 -14 -63 -14 -42 0 -93 -23 -93 -41 0 -5
52 -9 115 -9 130 0 133 2 116 68 -20 73 -108 144 -175 141 -12 0 -37 -5 -56
-11z"/>
<path d="M6114 1497 c-84 -25 -119 -77 -118 -183 1 -77 17 -110 75 -153 32
-23 111 -38 152 -27 60 15 32 73 -30 61 -41 -7 -103 23 -123 61 -8 15 -15 48
-15 75 0 40 4 51 29 71 49 39 92 50 131 34 35 -15 63 -52 48 -67 -4 -4 -37
-10 -73 -13 -36 -2 -66 -5 -68 -5 -9 -3 27 -42 48 -51 26 -11 160 -8 179 4 16
10 14 38 -9 90 -25 60 -63 92 -123 105 -56 13 -50 13 -103 -2z"/>
<path d="M5434 1493 c-5 -1 -27 -7 -49 -12 -76 -20 -98 -85 -87 -251 7 -93 8
-95 32 -95 l25 0 5 130 c3 74 10 139 17 151 14 25 63 37 96 25 46 -18 57 -51
57 -174 0 -120 8 -143 46 -135 15 3 17 18 16 131 -2 135 -10 166 -59 209 -16
14 -77 27 -99 21z"/>
<path d="M5749 1491 c-80 -26 -119 -81 -119 -171 0 -102 62 -175 158 -187 61
-7 142 26 142 58 0 28 -28 35 -62 16 -40 -23 -72 -21 -118 5 -48 28 -60 53
-60 122 0 49 3 57 35 85 47 41 77 47 124 26 64 -28 99 -9 49 28 -29 22 -107
31 -149 18z"/>
<path d="M4692 1474 c-17 -12 -22 -25 -22 -59 0 -46 0 -46 94 -128 31 -27 37
-38 31 -56 -10 -34 -44 -45 -80 -27 -21 11 -32 12 -42 4 -20 -16 -16 -35 15
-58 21 -18 36 -21 72 -17 63 7 100 49 100 115 0 52 -11 67 -90 121 -43 29 -51
41 -40 61 5 9 23 15 47 15 32 0 39 4 41 23 3 20 0 22 -50 22 -32 0 -62 -6 -76
-16z"/>
<path d="M12512 2170 c-28 -27 -42 -80 -42 -165 0 -124 28 -175 97 -177 73 -2
99 30 109 139 9 92 -9 176 -43 203 -34 26 -92 26 -121 0z"/>
<path d="M13634 2020 c-34 -13 -54 -50 -54 -98 0 -58 41 -102 95 -102 72 0
104 33 104 105 0 28 -5 57 -12 66 -28 36 -85 49 -133 29z"/>
<path d="M10990 1995 l0 -175 67 0 c130 0 193 58 193 177 0 117 -61 173 -187
173 l-73 0 0 -175z"/>
</g>
</svg>
